<svg xmlns="http://www.w3.org/2000/svg" width="19.572" height="21.707" viewBox="0 0 19.572 21.707"><g transform="translate(-1627.144 -825.323)"><g transform="translate(1627.144 825.323)"><path d="M1631.473,827.5c.139-.9-.288-2.144,1.112-2.142s.958,1.248,1.094,2.1h6.538c0-.388-.013-.75,0-1.11a1.059,1.059,0,0,1,2.114-.04c.024.363,0,.73,0,1.191.364,0,.684,0,1,0a3.234,3.234,0,0,1,3.367,3.405q.011,6.372,0,12.745a3.223,3.223,0,0,1-3.34,3.374q-6.43.017-12.861,0a3.225,3.225,0,0,1-3.358-3.356q-.014-6.4,0-12.8a3.23,3.23,0,0,1,3.348-3.366C1630.822,827.492,1631.144,827.5,1631.473,827.5Zm-2.1,8.684a3.1,3.1,0,0,0-.033.31c0,2.414-.006,4.827,0,7.241,0,.744.418,1.146,1.22,1.148q6.372.014,12.744,0c.848,0,1.221-.409,1.224-1.263,0-1.757,0-3.514,0-5.271v-2.164Zm4.276-6.524c0,.372,0,.678,0,.985a1.07,1.07,0,1,1-2.127-.012c-.007-.32,0-.64,0-1-.4,0-.7-.009-1.01,0a1.092,1.092,0,0,0-1.17,1.2c-.005.405,0,.811,0,1.216v1.927h15.185c0-1.166.028-2.3-.013-3.433a.931.931,0,0,0-.866-.879,9,9,0,0,0-1.3-.013c0,.384.008.709,0,1.033a1.065,1.065,0,1,1-2.125.007c-.007-.34,0-.68,0-1.04Z" transform="translate(-1627.144 -825.323)" fill="#fff"/><path d="M1669.13,939.786c0,.328.008.656,0,.984a1.074,1.074,0,0,1-1.153,1.162q-1.012.027-2.026,0a1.049,1.049,0,0,1-1.138-1.165c-.012-.656-.01-1.312,0-1.968a1.067,1.067,0,0,1,1.171-1.2c.636-.022,1.274-.017,1.91,0a1.11,1.11,0,0,1,1.238,1.261C1669.133,939.168,1669.13,939.477,1669.13,939.786Z" transform="translate(-1660.437 -924.572)" fill="#fff"/></g></g></svg>