<svg xmlns="http://www.w3.org/2000/svg" width="21.125" height="18.34" viewBox="0 0 21.125 18.34"><g transform="translate(-1632.004 -583.204)"><g transform="translate(1632.004 583.204)"><path d="M1665.8,587.107h2.539v14.436h-13.052V587.114h2.561c0-.848-.007-1.591,0-2.334.012-1.06.478-1.557,1.507-1.566q2.465-.021,4.93,0a1.35,1.35,0,0,1,1.509,1.488C1665.816,585.473,1665.8,586.244,1665.8,587.107Zm-1.413-2.445h-5.1v2.373h5.1Z" transform="translate(-1651.256 -583.204)" fill="#fff"/><path d="M1634.725,606.263V620.57a2.44,2.44,0,0,1-2.678-2.423q-.085-4.714,0-9.431A2.529,2.529,0,0,1,1634.725,606.263Z" transform="translate(-1632.004 -602.271)" fill="#fff"/><path d="M1738.354,620.772V606.464a2.472,2.472,0,0,1,2.68,2.52q.066,4.629,0,9.258A2.534,2.534,0,0,1,1738.354,620.772Z" transform="translate(-1719.944 -602.431)" fill="#fff"/></g></g></svg>