<svg xmlns="http://www.w3.org/2000/svg" width="21.125" height="19.235" viewBox="0 0 21.125 19.235"><g transform="translate(-1911.484 -661.827)"><path d="M1930.209,670.064a1.02,1.02,0,0,0-.927-.109,1.487,1.487,0,0,0-.542,1.007c-.046,2.435-.024,4.871-.024,7.306v1.093h-11.648V670.2c1.649,0,3.247-.005,4.846,0,.57,0,1.032-.132,1.082-.8.041-.553-.346-.842-1.1-.845-1.438,0-2.876,0-4.314,0-1.557,0-2.184.628-2.186,2.2q0,3.932,0,7.863c0,.247-.021.493-.033.76h-2.207v-15.9h8.15c0,.857.007,1.621,0,2.385-.006.486.189.734.7.724.742-.014,1.485-.013,2.227,0a.845.845,0,0,0,.959-.792c.06-.464-.383-.827-.982-.846-.408-.013-.818,0-1.288,0,0-.459,0-.826,0-1.193-.02-1.323-.6-1.914-1.917-1.919q-3.827-.015-7.654,0a1.667,1.667,0,0,0-1.855,1.85q-.01,7.759,0,15.517a1.7,1.7,0,0,0,1.869,1.853q7.655.011,15.309,0a1.7,1.7,0,0,0,1.919-1.808c.032-2.783.021-5.567-.005-8.35A1.157,1.157,0,0,0,1930.209,670.064Z" fill="#fff"/><path d="M2003.657,668.263a1.481,1.481,0,0,0-1.729.532q-2.3,2.461-4.6,4.925a1.612,1.612,0,0,0-.355.579c-.352,1.1-.685,2.205-1.008,3.314a1.68,1.68,0,0,0,.012.5,1.9,1.9,0,0,0,.521-.074c.759-.339,1.516-.686,2.257-1.061a5.225,5.225,0,0,0,1.412-.84c1.539-1.572,3.032-3.19,4.513-4.818a5.8,5.8,0,0,0,.634-1.1A3.011,3.011,0,0,0,2003.657,668.263Z" transform="translate(-72.702 -5.449)" fill="#fff"/><path d="M1966.529,769.918c-.494,0-.773.208-.779.67-.006.487.265.75.795.739q.356-.008.712-.009c.712,0,1.425,0,2.137,0s1.425-.005,2.137,0q.356,0,.712.006c.527.007.794-.263.781-.753s-.321-.656-.8-.652Q1969.378,769.94,1966.529,769.918Z" transform="translate(-46.711 -93.044)" fill="#fff"/><path d="M1970.9,747.289q-2.043,0-4.085,0c-.49,0-.82.206-.812.725.008.539.375.674.853.664q.251-.005.5-.007c.5,0,1,0,1.506,0s1-.005,1.506,0q.251,0,.5.006c.478.009.848-.134.852-.667C1971.724,747.495,1971.381,747.289,1970.9,747.289Z" transform="translate(-46.926 -73.565)" fill="#fff"/></g></svg>